<svg width="32" height="32" viewBox="0 0 32 32" fill="none" xmlns="http://www.w3.org/2000/svg">
<path fill-rule="evenodd" clip-rule="evenodd" d="M1 7C1 3.68629 3.68629 1 7 1L15 1L15 8.86477C15 12.1785 12.3137 14.8648 9 14.8648L1 14.8648L1 7Z" fill="black"/>
<path fill-rule="evenodd" clip-rule="evenodd" d="M31 24.71C31 28.0237 28.3137 30.71 25 30.71H17L17 22.8452C17 19.5315 19.6863 16.8452 23 16.8452L31 16.8452L31 24.71Z" fill="black"/>
<path fill-rule="evenodd" clip-rule="evenodd" d="M7 30.71C3.68629 30.71 1 28.0237 1 24.71L1 16.8452L9 16.8452C12.3137 16.8452 15 19.5315 15 22.8452L15 30.71L7 30.71Z" fill="black"/>
<path fill-rule="evenodd" clip-rule="evenodd" d="M25 1C28.3137 1 31 3.68629 31 7L31 14.8648L23 14.8648C19.6863 14.8648 17 12.1785 17 8.86477L17 1L25 1Z" fill="black"/>
</svg>
