<svg class="gradiented" width="100%" height="100%" viewBox="0 0 144 144" fill="none" xmlns="http://www.w3.org/2000/svg">
<path d="M0 28C0 12.536 12.536 0 28 0H116C131.464 0 144 12.536 144 28V116C144 131.464 131.464 144 116 144H28C12.536 144 0 131.464 0 116V28Z" fill="white"/>
<path d="M82.4505 32C122.011 58.7755 109.215 88.3032 109.215 88.3032C109.215 88.3032 120.464 100.945 115.918 112C115.918 112 111.277 104.257 103.496 104.257C95.9968 104.257 91.5907 112 76.4977 112C42.8899 112 27 84.0583 27 84.0583C57.2798 103.883 77.9508 89.8426 77.9508 89.8426C64.3108 81.9592 35.2965 44.2682 35.2965 44.2682C60.5609 65.6793 71.4823 71.3236 71.4823 71.3236C64.967 65.9592 46.6866 39.7434 46.6866 39.7434C61.3109 54.484 90.372 75.0554 90.372 75.0554C98.6217 52.2915 82.4505 32 82.4505 32Z" fill="black"/>
<path d="M82.4505 32C122.011 58.7755 109.215 88.3032 109.215 88.3032C109.215 88.3032 120.464 100.945 115.918 112C115.918 112 111.277 104.257 103.496 104.257C95.9968 104.257 91.5907 112 76.4977 112C42.8899 112 27 84.0583 27 84.0583C57.2798 103.883 77.9508 89.8426 77.9508 89.8426C64.3108 81.9592 35.2965 44.2682 35.2965 44.2682C60.5609 65.6793 71.4823 71.3236 71.4823 71.3236C64.967 65.9592 46.6866 39.7434 46.6866 39.7434C61.3109 54.484 90.372 75.0554 90.372 75.0554C98.6217 52.2915 82.4505 32 82.4505 32Z" fill="url(#paint0_linear_1702_1690)"/>
<defs>
<linearGradient id="paint0_linear_1702_1690" x1="4.72111" y1="86.2747" x2="74.0675" y2="137.872" gradientUnits="userSpaceOnUse">
<stop stop-color="#94D8FF"/>
<stop offset="0.589024" stop-color="#A5A5FF"/>
<stop offset="1" stop-color="#E5B0FF"/>
</linearGradient>
</defs>
</svg>
