<svg width="100%" height="100%" viewBox="0 0 112 112" fill="none" xmlns="http://www.w3.org/2000/svg">
<rect width="112" height="112" rx="24" fill="white"/>
<path d="M64.3604 24C96.0089 45.4204 85.7719 69.0426 85.7719 69.0426C85.7719 69.0426 94.7715 79.1557 91.1342 88C91.1342 88 87.4219 81.8052 81.1972 81.8052C75.1974 81.8052 71.6726 88 59.5982 88C32.7119 88 20 65.6467 20 65.6467C44.2239 81.5067 60.7606 70.2741 60.7606 70.2741C49.8486 63.9674 26.6372 33.8146 26.6372 33.8146C46.8487 50.9434 55.5858 55.4589 55.5858 55.4589C50.3736 51.1673 35.7493 30.1948 35.7493 30.1948C47.4487 41.9872 70.6976 58.4443 70.6976 58.4443C77.2973 40.2332 64.3604 24 64.3604 24Z" fill="black"/>
</svg>
