<svg width="60" height="60" viewBox="0 0 60 60" fill="none" xmlns="http://www.w3.org/2000/svg">
<path d="M0 29C0 12.9837 12.9837 0 29 0H31C47.0163 0 60 12.9837 60 29V31C60 47.0163 47.0163 60 31 60H29C12.9837 60 0 47.0163 0 31V29Z" fill="white"/>
<path d="M21 15C17.6863 15 15 17.6863 15 21V28.8648H23C26.3137 28.8648 29 26.1785 29 22.8648V15H21Z" fill="black"/>
<path d="M21 15C17.6863 15 15 17.6863 15 21V28.8648H23C26.3137 28.8648 29 26.1785 29 22.8648V15H21Z" fill="url(#paint0_linear_1704_1694)"/>
<path d="M39 44.7104C42.3137 44.7104 45 42.0242 45 38.7104V30.8457H37C33.6863 30.8457 31 33.532 31 36.8457V44.7104H39Z" fill="black"/>
<path d="M39 44.7104C42.3137 44.7104 45 42.0242 45 38.7104V30.8457H37C33.6863 30.8457 31 33.532 31 36.8457V44.7104H39Z" fill="url(#paint1_linear_1704_1694)"/>
<path d="M21 44.7104C17.6863 44.7104 15 42.0242 15 38.7104V30.8457H23C26.3137 30.8457 29 33.532 29 36.8457V44.7104H21Z" fill="black"/>
<path d="M21 44.7104C17.6863 44.7104 15 42.0242 15 38.7104V30.8457H23C26.3137 30.8457 29 33.532 29 36.8457V44.7104H21Z" fill="url(#paint2_linear_1704_1694)"/>
<path d="M45 21C45 17.6863 42.3137 15 39 15H31V22.8648C31 26.1785 33.6863 28.8648 37 28.8648H45V21Z" fill="black"/>
<path d="M45 21C45 17.6863 42.3137 15 39 15H31V22.8648C31 26.1785 33.6863 28.8648 37 28.8648H45V21Z" fill="url(#paint3_linear_1704_1694)"/>
<defs>
<linearGradient id="paint0_linear_1704_1694" x1="35.5019" y1="11.5679" x2="15.3449" y2="50.18" gradientUnits="userSpaceOnUse">
<stop stop-color="#94D8FF"/>
<stop offset="0.589024" stop-color="#A5A5FF"/>
<stop offset="1" stop-color="#E5B0FF"/>
</linearGradient>
<linearGradient id="paint1_linear_1704_1694" x1="35.5019" y1="11.5679" x2="15.3449" y2="50.18" gradientUnits="userSpaceOnUse">
<stop stop-color="#94D8FF"/>
<stop offset="0.589024" stop-color="#A5A5FF"/>
<stop offset="1" stop-color="#E5B0FF"/>
</linearGradient>
<linearGradient id="paint2_linear_1704_1694" x1="35.5019" y1="11.5679" x2="15.3449" y2="50.18" gradientUnits="userSpaceOnUse">
<stop stop-color="#94D8FF"/>
<stop offset="0.589024" stop-color="#A5A5FF"/>
<stop offset="1" stop-color="#E5B0FF"/>
</linearGradient>
<linearGradient id="paint3_linear_1704_1694" x1="35.5019" y1="11.5679" x2="15.3449" y2="50.18" gradientUnits="userSpaceOnUse">
<stop stop-color="#94D8FF"/>
<stop offset="0.589024" stop-color="#A5A5FF"/>
<stop offset="1" stop-color="#E5B0FF"/>
</linearGradient>
</defs>
</svg>
