<svg width="56" height="56" viewBox="0 0 56 56" fill="none" xmlns="http://www.w3.org/2000/svg">
<rect width="56" height="56" rx="25" fill="white"/>
<path d="M38 21.8919C37.2651 22.2152 36.4746 22.4309 35.6408 22.533C36.4885 22.0331 37.1406 21.2359 37.4467 20.2941C36.6534 20.7559 35.7746 21.0952 34.8397 21.2739C34.0931 20.4877 33.0282 20 31.8483 20C29.5818 20 27.7447 21.8086 27.7447 24.0386C27.7447 24.3542 27.782 24.6615 27.852 24.96C24.4422 24.7901 21.418 23.1801 19.3949 20.7371C19.0394 21.3341 18.8394 22.0331 18.8394 22.7708C18.8394 24.1727 19.5621 25.4069 20.6642 26.1341C19.9915 26.1137 19.3582 25.9277 18.8038 25.6298C18.8038 25.6419 18.8038 25.6601 18.8038 25.6772C18.8038 27.6364 20.2187 29.2679 22.0941 29.6392C21.7514 29.7324 21.3892 29.7843 21.0159 29.7843C20.7509 29.7843 20.4926 29.7545 20.2426 29.7098C20.7648 31.3109 22.2796 32.4811 24.0745 32.5159C22.6702 33.5972 20.9014 34.245 18.9783 34.245C18.6461 34.245 18.3211 34.2262 18 34.1876C19.8171 35.3302 21.9747 36 24.2906 36C31.8372 36 35.9657 29.845 35.9657 24.5054C35.9657 24.3305 35.9602 24.1561 35.9518 23.984C36.7573 23.419 37.4517 22.7062 38 21.8919Z" fill="black"/>
</svg>
