<svg width="56" height="56" viewBox="0 0 56 56" fill="none" xmlns="http://www.w3.org/2000/svg">
<rect width="56" height="56" rx="25" fill="white"/>
<path fill-rule="evenodd" clip-rule="evenodd" d="M28.011 18C30.683 18.001 33.191 19.041 35.077 20.928C36.963 22.816 38.001 25.325 37.999 27.994C37.996 33.499 33.515 37.979 28.01 37.979H28.006C26.334 37.978 24.692 37.559 23.233 36.763L18 38L19.355 32.977C18.481 31.463 18.021 29.745 18.022 27.985C18.024 22.479 22.505 18 28.011 18ZM31.213 32.74C31.671 32.699 32.69 32.137 32.898 31.554C33.106 30.971 33.106 30.471 33.044 30.368C32.9942 30.2844 32.8771 30.2279 32.7032 30.1441C32.6608 30.1236 32.615 30.1015 32.566 30.077C32.317 29.952 31.09 29.348 30.861 29.265C30.632 29.182 30.465 29.14 30.299 29.39C30.133 29.64 29.655 30.202 29.509 30.368C29.363 30.535 29.218 30.556 28.968 30.431C28.9265 30.4101 28.8698 30.3854 28.7998 30.3549C28.4474 30.2016 27.7567 29.901 26.961 29.192C26.219 28.531 25.719 27.714 25.573 27.464C25.428 27.215 25.558 27.079 25.683 26.955C25.7575 26.8805 25.8431 26.7763 25.9289 26.6719C25.972 26.6194 26.0152 26.5669 26.057 26.518C26.1628 26.3935 26.2089 26.2995 26.2717 26.1715C26.2825 26.1495 26.2938 26.1264 26.306 26.102C26.389 25.936 26.347 25.79 26.285 25.665C26.259 25.6125 26.1585 25.3648 26.0342 25.0584C25.8623 24.6346 25.6448 24.0987 25.516 23.812C25.329 23.397 25.132 23.388 24.954 23.381C24.809 23.375 24.642 23.375 24.476 23.375C24.309 23.375 24.039 23.437 23.81 23.687C23.7957 23.7026 23.7797 23.7195 23.7624 23.738C23.5028 24.014 22.936 24.6168 22.936 25.768C22.936 26.988 23.8185 28.1666 23.9525 28.3456L23.955 28.349C23.9643 28.3614 23.9818 28.3874 24.0073 28.4253C24.3237 28.8948 25.8706 31.1907 28.218 32.116C30.1242 32.8675 30.6575 32.8045 31.0808 32.7545C31.1256 32.7492 31.1692 32.744 31.213 32.74Z" fill="black"/>
</svg>
