<svg width="56" height="56" viewBox="0 0 56 56" fill="none" xmlns="http://www.w3.org/2000/svg">
<rect width="56" height="56" rx="25" fill="white"/>
<path d="M30.8268 22.6196H32.7836C32.9996 22.6196 33.1749 22.4394 33.1749 22.2174V19.5079C33.1749 19.2972 33.0172 19.1219 32.8129 19.107C32.1903 19.0615 30.974 19 30.0993 19C27.6961 19 26.1307 20.48 26.1307 23.1697V25.837H23.3913C23.1753 25.837 23 26.0171 23 26.2391V29.0543C23 29.2763 23.1753 29.4565 23.3913 29.4565H26.1307V37.0978C26.1307 37.3198 26.3061 37.5 26.5221 37.5H29.2615C29.4775 37.5 29.6528 37.3198 29.6528 37.0978V29.4565H32.4791C32.6787 29.4565 32.8462 29.3025 32.8681 29.0986L33.1725 26.2834C33.1984 26.0453 33.0168 25.837 32.7836 25.837H29.6528V23.8261C29.6528 23.1597 30.1784 22.6196 30.8268 22.6196Z" fill="black"/>
</svg>
