<svg width="30" height="30" viewBox="0 0 30 30" fill="none" xmlns="http://www.w3.org/2000/svg">
<g id="Group 4">
<g id="Group 5">
<path id="Rectangle" fill-rule="evenodd" clip-rule="evenodd" d="M0 6C0 2.68629 2.68629 0 6 0L14 0L14 8C14 11.3137 11.3137 14 8 14L0 14L0 6Z" fill="white"/>
<path id="Rectangle Copy 8" fill-rule="evenodd" clip-rule="evenodd" d="M30 24C30 27.3137 27.3137 30 24 30H16L16 22C16 18.6863 18.6863 16 22 16L30 16L30 24Z" fill="white"/>
<path id="Rectangle Copy 9" fill-rule="evenodd" clip-rule="evenodd" d="M6 30C2.68629 30 0 27.3137 0 24L0 16L8 16C11.3137 16 14 18.6863 14 22L14 30L6 30Z" fill="white"/>
<path id="Rectangle Copy 7" fill-rule="evenodd" clip-rule="evenodd" d="M24 0C27.3137 0 30 2.68629 30 6L30 14L22 14C18.6863 14 16 11.3137 16 8L16 0L24 0Z" fill="white"/>
</g>
</g>
</svg>
