<svg width="24" height="24" viewBox="0 0 24 24" fill="none" xmlns="http://www.w3.org/2000/svg">
<g id="Component 3">
<path id="Vector" d="M17.3371 2.21819C17.2538 2.3746 17.2109 2.54223 17.2109 2.71153V21.1332C17.2109 21.4751 17.3856 21.803 17.6964 22.0448C18.0072 22.2865 18.4288 22.4224 18.8684 22.4224H21.5534C21.993 22.4224 22.4146 22.2865 22.7255 22.0448C23.0363 21.803 23.2109 21.4751 23.2109 21.1332V2.71153C23.2109 2.54223 23.1681 2.3746 23.0848 2.21819C23.0015 2.06178 22.8794 1.91966 22.7255 1.79995C22.5716 1.68024 22.3888 1.58528 22.1877 1.5205C21.9866 1.45571 21.7711 1.42236 21.5534 1.42236H18.8684C18.4288 1.42236 18.0072 1.55819 17.6964 1.79995C17.5425 1.91966 17.4204 2.06178 17.3371 2.21819Z" fill="#161516"/>
<path id="Vector_2" d="M8.88789 9.27583C8.80459 9.43339 8.76172 9.60227 8.76172 9.77282V21.2789C8.76172 21.6234 8.93635 21.9537 9.24719 22.1973C9.55803 22.4408 9.97962 22.5776 10.4192 22.5776H13.1042C13.5438 22.5776 13.9654 22.4408 14.2762 22.1973C14.5871 21.9537 14.7617 21.6234 14.7617 21.2789V9.77282C14.7617 9.60227 14.7188 9.43339 14.6355 9.27583C14.5523 9.11826 14.4302 8.9751 14.2762 8.8545C14.1223 8.73391 13.9396 8.63824 13.7385 8.57298C13.5374 8.50771 13.3219 8.47412 13.1042 8.47412H10.4192C10.2016 8.47412 9.98602 8.50771 9.78492 8.57298C9.58382 8.63824 9.4011 8.73391 9.24719 8.8545C9.09328 8.9751 8.97119 9.11826 8.88789 9.27583Z" fill="#161516"/>
<path id="Vector_3" d="M0.915233 18.2758C0.831935 18.4334 0.789062 18.6023 0.789062 18.7728V21.2789C0.789062 21.6234 0.963691 21.9537 1.27453 22.1973C1.58537 22.4408 2.00697 22.5776 2.44656 22.5776H5.13156C5.57116 22.5776 5.99275 22.4408 6.30359 22.1973C6.61443 21.9537 6.78906 21.6234 6.78906 21.2789V18.7728C6.78906 18.6023 6.74619 18.4334 6.66289 18.2758C6.5796 18.1183 6.45751 17.9751 6.30359 17.8545C6.14968 17.7339 5.96696 17.6382 5.76586 17.573C5.56476 17.5077 5.34923 17.4741 5.13156 17.4741H2.44656C2.2289 17.4741 2.01336 17.5077 1.81226 17.573C1.61117 17.6382 1.42845 17.7339 1.27453 17.8545C1.12062 17.9751 0.99853 18.1183 0.915233 18.2758Z" fill="#161516"/>
</g>
</svg>
