<svg width="112" height="112" viewBox="0 0 112 112" fill="none" xmlns="http://www.w3.org/2000/svg">
<rect width="112" height="112" rx="24" fill="white"/>
<path fill-rule="evenodd" clip-rule="evenodd" d="M73.0042 74.6416C87.9642 66.8937 81.0181 59.4137 76.2094 60.3494C75.0094 60.6172 74.4702 60.8833 74.4702 60.8833C74.4702 60.8833 74.8702 60.0833 75.8059 59.8155C85.2894 56.4764 92.7711 69.8329 72.7328 75.0433C72.7328 75.0433 72.8668 74.9094 73.0007 74.6433L73.0042 74.6416ZM41.7442 64.7563C32.3946 63.5545 46.9546 60.0815 46.9546 60.0815V60.0624C46.9546 60.0624 41.2103 59.6798 34.2642 63.0189C26.1146 67.0276 54.5668 68.7615 69.3946 64.8885C70.8625 63.9545 73.0016 63.0189 73.0016 63.0189C73.0016 63.0189 66.9894 64.0885 60.979 64.6224C53.6329 65.1563 45.7511 65.2902 41.7442 64.7563ZM43.4802 69.1682L43.4843 69.1651V69.1668L43.4802 69.1682ZM43.4802 69.1682C43.3524 69.2672 40.2507 71.715 45.3538 72.2381C52.166 72.9059 57.5277 73.0381 66.7277 71.1703C66.7277 71.1703 67.9277 72.5059 69.933 73.1738C51.1 78.7836 29.9963 73.7087 43.4802 69.1682ZM45.4755 77.854L45.4872 77.8467L45.4889 77.8502L45.4755 77.854ZM45.4755 77.854C45.2745 77.981 42.6038 79.7358 47.6263 80.2519C53.8872 81.0519 57.2437 80.9198 64.1898 79.5841C64.1898 79.5841 66.0594 80.7841 68.5985 81.7232C52.9746 88.3991 33.2146 81.3284 45.4755 77.854ZM80.3532 84.3928C80.3532 84.3928 82.6245 86.2624 77.8141 87.7319C68.8645 90.4033 40.2784 91.205 32.2628 87.7319C29.4576 86.5319 34.8019 84.7754 36.5376 84.5267C38.2767 84.1267 39.2089 84.1267 39.2089 84.1267C36.1376 81.9876 18.7706 88.5354 30.3915 90.3876C62.3167 95.5963 88.6315 88.1163 80.3498 84.3772L80.3532 84.3928ZM85.4287 88.3997C84.8966 95.2119 62.8531 96.6815 48.427 95.7458V95.7476C38.94 95.2119 37.0705 93.6084 37.0705 93.6084C46.0235 95.078 61.2514 95.3458 73.54 93.0745C84.3609 91.071 85.4287 88.3997 85.4287 88.3997Z" fill="black"/>
<path fill-rule="evenodd" clip-rule="evenodd" d="M56.0389 37.1058C72.2024 24.4171 63.9206 15.9998 63.9206 15.9998H63.9189C66.1462 24.8207 60.1729 29.5407 54.3223 34.1637C51.4017 36.4715 48.5117 38.7552 46.6876 41.5128C42.9484 47.125 48.425 53.1354 56.0389 59.9476C55.3707 58.4384 54.3428 56.97 53.3015 55.4824C49.735 50.3874 46.0104 45.0667 56.0389 37.1058ZM58.5763 62.7546C58.5763 62.7546 63.5189 58.7459 59.6459 54.3372L59.6441 54.3354C46.5519 39.2415 73.9363 32.4294 73.9363 32.4294C57.3597 41.9945 59.5313 45.1067 63.3637 50.5989C63.5457 50.8596 63.7313 51.1257 63.9189 51.3981C68.4615 57.6763 58.5763 62.7546 58.5763 62.7546Z" fill="black"/>
</svg>
