<svg class="gradiented" width="100%" height="100%" viewBox="0 0 144 144" fill="none" xmlns="http://www.w3.org/2000/svg">
<path d="M0 28C0 12.536 12.536 0 28 0H116C131.464 0 144 12.536 144 28V116C144 131.464 131.464 144 116 144H28C12.536 144 0 131.464 0 116V28Z" fill="white"/>
<path d="M32 44C32 37.3726 37.3726 32 44 32H100C106.627 32 112 37.3726 112 44V100C112 106.627 106.627 112 100 112H44C37.3726 112 32 106.627 32 100V44Z" fill="black"/>
<path d="M32 44C32 37.3726 37.3726 32 44 32H100C106.627 32 112 37.3726 112 44V100C112 106.627 106.627 112 100 112H44C37.3726 112 32 106.627 32 100V44Z" fill="url(#paint0_linear_1702_1691)"/>
<path d="M105.447 92.9199C104.864 89.2699 102.487 86.2032 95.4373 83.3432C92.984 82.1932 90.2573 81.3933 89.4473 79.5433C89.144 78.4433 89.0973 77.8433 89.294 77.1933C89.794 75.0399 92.344 74.3932 94.344 74.9932C95.644 75.3932 96.844 76.3932 97.5973 77.9932C101.044 75.7399 101.044 75.7399 103.447 74.2432C102.547 72.8432 102.101 72.2399 101.494 71.6432C99.394 69.2932 96.5973 68.0933 92.0473 68.1966L89.6973 68.4932C87.444 69.0432 85.2973 70.2433 83.9973 71.8433C80.1973 76.1466 81.294 83.6466 85.894 86.7466C90.444 90.1466 97.0973 90.8932 97.9473 94.0966C98.7473 97.9966 95.0473 99.2466 91.394 98.7966C88.6907 98.1966 87.194 96.8432 85.544 94.3432L79.444 97.8466C80.144 99.4466 80.944 100.143 82.144 101.543C87.944 107.397 102.444 107.097 105.047 98.1966C105.144 97.8966 105.847 95.8466 105.294 92.6966L105.447 92.9199ZM75.504 68.7699H68.0107C68.0107 75.2299 67.9807 81.6499 67.9807 88.1199C67.9807 92.2266 68.1907 95.9966 67.5207 97.1566C66.4207 99.4533 63.5873 99.1599 62.3007 98.7566C60.9807 98.1033 60.3107 97.2033 59.534 95.9066C59.324 95.5566 59.1673 95.2533 59.1107 95.2533L53.0273 99.0033C54.044 101.103 55.5273 102.91 57.4407 104.06C60.2907 105.76 64.1207 106.31 68.1307 105.41C70.7407 104.657 72.9907 103.107 74.1673 100.707C75.8673 97.6066 75.5073 93.8066 75.4907 89.5533C75.5307 82.7066 75.4907 75.8566 75.4907 68.9566L75.504 68.7699Z" fill="white"/>
<defs>
<linearGradient id="paint0_linear_1702_1691" x1="-35.6462" y1="97.6945" x2="84.2766" y2="177.008" gradientUnits="userSpaceOnUse">
<stop stop-color="#94D8FF"/>
<stop offset="0.589024" stop-color="#A5A5FF"/>
<stop offset="1" stop-color="#E5B0FF"/>
</linearGradient>
</defs>
</svg>
